<svg id="Layer_1" data-name="Layer 1" xmlns="http://www.w3.org/2000/svg" xmlns:xlink="http://www.w3.org/1999/xlink" viewBox="0 0 679.64193 342.35694">
  <defs>
    <style>
      .cls-1 {
        fill: none;
      }

      .cls-2 {
        clip-path: url(#clip-path);
      }

      .cls-3 {
        fill: #fff;
      }

      .cls-4 {
        fill: #ec90ac;
      }

      .cls-5 {
        fill: #5b89af;
      }

      .cls-6 {
        fill: #76ba81;
      }
    </style>
    <clipPath id="clip-path" transform="translate(35.9255 -405.845)">
      <rect class="cls-1" x="7.23593" y="416.55319" width="580.80374" height="307.40426"/>
    </clipPath>
  </defs>
  <title>color letter</title>
  <g class="cls-2">
    <g>
      <polygon class="cls-3" points="198.641 153.27 230.641 87.07 194.641 87.07 168.641 147.07 168.241 147.07 168.241 117.408 133.04 152.608 133.04 237.07 168.241 237.07 168.241 200.07 176.04 184.87 195.441 237.07 232.641 237.07 198.641 153.27"/>
      <polygon class="cls-4" points="166.706 87.07 133.04 87.07 133.04 120.736 166.706 87.07"/>
    </g>
    <g>
      <polygon class="cls-5" points="310.615 237.07 345.04 237.07 338.894 208.791 310.615 237.07"/>
      <path class="cls-3" d="M268.51531,613.71484l.04413.25763,28.14795-28.148L276.51531,492.915H234.11492l-32.7998,150h35.40039l4.20019-29.2002ZM254.9157,520.11523h.39942l9.7998,67.19922H244.71551Z" transform="translate(35.9255 -405.845)"/>
    </g>
    <rect class="cls-1" width="679.64193" height="342.35694"/>
    <rect class="cls-1" width="679.64193" height="342.35694"/>
    <g>
      <path class="cls-3" d="M517.18829,584.04572,497.38281,492.915H454.98242l-32.7998,150H457.583l4.20019-29.2002h25.736ZM475.7832,520.11523h.39942l9.7998,67.19922H465.583Z" transform="translate(35.9255 -405.845)"/>
      <polygon class="cls-6" points="530.163 236.224 530.308 237.07 565.908 237.07 559.375 207.012 530.163 236.224"/>
    </g>
    <path class="cls-3" d="M379.1159,597.915a71.11162,71.11162,0,0,1-.40039,7.7998,24.18707,24.18707,0,0,1-1.7002,6.7002,12.00808,12.00808,0,0,1-4,5.09961,11.275,11.275,0,0,1-6.89941,2q-6.60059,0-9.60059-3.39942-3-3.39843-3-10l.2002-74.20019q0-7.99659,2.90039-11.79981,2.896-3.79687,10.69922-3.80078,5.19873,0,8.20019,5,3,5.00244,3,14.40039v9.59961h3.26349l29.64264-29.6427a32.905,32.905,0,0,0-10.10632-15.8573q-12.40284-10.5-35.59961-10.5-24.20216,0-35.7002,11.7002-11.50341,11.6997-11.5,36.10058v61.59961q0,23.60157,10.7002,35.7002,10.69629,12.10254,34.2998,12.09961,25.99659,0,38.40039-11.7002,12.39844-11.6997,12.39942-32.09961V584.31445H379.1159Z" transform="translate(35.9255 -405.845)"/>
  </g>
</svg>
