<svg xmlns="http://www.w3.org/2000/svg" viewBox="0 0 432.8675 157.2002">
  <defs>
    <style>
      .cls-1 {
        fill: #fff;
      }
    </style>
  </defs>
  <title>white letters</title>
  <g id="Layer_2" data-name="Layer 2">
    <g id="Layer_1-2" data-name="Layer 1">
      <g>
        <polygon class="cls-1" points="65.6 69.801 97.601 3.601 61.6 3.601 35.6 63.601 35.2 63.601 35.2 33.938 0 69.138 0 153.601 35.2 153.601 35.2 116.601 43 101.4 62.4 153.601 99.601 153.601 65.6 69.801"/>
        <polygon class="cls-1" points="33.666 3.601 0 3.601 0 37.267 33.666 3.601"/>
      </g>
      <g>
        <polygon class="cls-1" points="177.575 153.601 212 153.601 205.854 125.321 177.575 153.601"/>
        <path class="cls-1" d="M171.40039,124.40039l.04413.25763L199.59247,96.51,179.40039,3.60059H137l-32.7998,150h35.40039l4.20019-29.2002ZM157.80078,30.80078h.39942L168,98H147.60059Z"/>
      </g>
      <g>
        <path class="cls-1" d="M420.07337,94.73126,400.26789,3.60059H357.8675l-32.79981,150h35.4004l4.20019-29.2002h25.736ZM378.66828,30.80078h.39941L388.8675,98H368.46809Z"/>
        <polygon class="cls-1" points="397.123 152.755 397.268 153.601 432.867 153.601 426.335 123.543 397.123 152.755"/>
      </g>
      <path class="cls-1" d="M282.001,108.60059a71.11162,71.11162,0,0,1-.40039,7.7998,24.18707,24.18707,0,0,1-1.7002,6.7002,12.00808,12.00808,0,0,1-4,5.09961,11.275,11.275,0,0,1-6.89941,2q-6.60059,0-9.60059-3.39942-3-3.39843-3-10l.2002-74.20019q0-7.99659,2.90039-11.79981Q262.397,27.00391,270.2002,27q5.19873,0,8.20019,5,3,5.00244,3,14.40039V56h3.26349l29.64264-29.6427A32.90489,32.90489,0,0,0,304.2002,10.5Q291.79736,0,268.60059,0q-24.20216,0-35.7002,11.7002-11.50341,11.6997-11.5,36.10058v61.59961q0,23.60157,10.7002,35.7002,10.69629,12.10254,34.2998,12.09961,25.99659,0,38.40039-11.7002,12.39845-11.6997,12.39942-32.09961V95H282.001Z"/>
    </g>
  </g>
</svg>
